<?xml version="1.0" standalone="no"?><!DOCTYPE svg PUBLIC "-//W3C//DTD SVG 1.1//EN" "http://www.w3.org/Graphics/SVG/1.1/DTD/svg11.dtd"><svg class="icon" width="200px" height="200.00px" viewBox="0 0 1024 1024" version="1.1" xmlns="http://www.w3.org/2000/svg"><path d="M203.38 195.49c2.2-0.26 4.41-0.24 6.63-0.25 199.67 0.03 399.35-0.04 599.03 0.03 8.1-0.77 15.13 6.78 14.96 14.67 0 12.04 0.04 24.08-0.02 36.12 0 8.23-7.59 15.55-15.93 14.6-200.7 0.06-401.41 0.02-602.11 0.02-8.71 0.49-16.54-8.09-15.72-16.68 0.09-11.01-0.02-22.03 0.06-33.04 0.03-7.32 5.72-14.5 13.1-15.47zM241.64 343c-0.56-8.23 6.77-16.89 15.37-15.84 165.66 0.02 331.32-0.02 496.98 0.02 8.67-1.01 15.66 7.56 15.18 15.81 0.14 85.33 0.08 170.69 0.03 256.03 0.51 9.26-8.09 17.19-17.16 16.82-14.03 0.06-28.05-0.05-42.07 0.02-1.99 0.17-5.02-0.05-5.6 2.44-14.23 47.22-28.32 94.5-42.49 141.73-0.84 2.59 0.94 6.41 4.09 5.74 47.68 0.1 95.36-0.01 143.03 0.06 7.71-0.44 15.05 6.36 14.96 14.11 0.07 11.37 0.03 22.76 0.03 34.14 0.04 7.73-7.15 14.63-14.95 13.88-201.01 0.07-402.02-0.01-603.04 0.04-4.12-0.07-8.31 0.25-12.37-0.63-5.77-2.23-10.6-7.93-10.42-14.33-0.05-10.7 0-21.39-0.02-32.09-0.54-8 6.94-15.17 14.8-15.08 45.69-0.2 91.39 0.09 137.08-0.15 3.04 0.29 3.91-3.43 3.11-5.74-9.86-34.81-19.86-69.59-29.65-104.43-1.16-3.49 1.75-7.19 5.42-6.93 23.01-0.09 46.03-0.01 69.05-0.04 6.77 0.02 14.16 2.73 17.33 9.11 13.62 34.69 27.3 69.36 40.98 104.02 0.91 2.85 3.65 4.55 6.62 4.08 35.82-0.15 71.67 0.4 107.49-0.29 3.25-2.98 4.21-7.4 5.67-11.37 16.07-45.07 32.54-89.99 48.34-135.15-0.51-0.99-1-1.98-1.47-2.96-117.01-0.43-234.04 0.01-351.05-0.22-8.37-0.55-15.84-8.26-15.28-16.81 0.02-85.33 0.01-170.66 0.01-255.99m102.59 53.9c-0.16 48.03-0.03 96.07-0.08 144.1 0.12 2.97-0.52 6.49 2.06 8.65 17.59 0.51 35.19 0.09 52.79 0.23 88.2-0.23 176.44 0.44 264.62-0.34 1.42-1.51 2.85-3.27 2.71-5.48 0.06-49.04 0-98.09 0.02-147.13 0.15-3.28-3.6-4.69-6.33-4.41-103.69 0-207.38 0.01-311.07-0.01-2.6-0.32-5.28 1.57-4.72 4.39z" /></svg>